<svg width="48" height="48" viewBox="0 0 12.7 12.7" xmlns="http://www.w3.org/2000/svg"><defs><linearGradient id="a" x1="-211.81" x2="-208.74" y1="-221.14" y2="-221.14" gradientUnits="userSpaceOnUse"><stop stop-color="#2a7fff" offset="0"/></linearGradient></defs><g transform="translate(0 -284.3)"><ellipse cx="6.35" cy="290.65" rx="6.35" ry="6.35" fill="#fff"/><rect transform="rotate(270)" x="-294.62" y="2.371" width="7.938" height=".529" ry="0" fill="#2a7fff"/><rect transform="rotate(270)" x="-294.62" y="9.779" width="7.938" height=".529" ry="0" fill="#2a7fff"/><g transform="translate(0 .265)" fill="#2a7fff"><rect x="2.381" y="285.89" width="7.938" height=".529" ry=".265"/><rect transform="matrix(-.00111 -1 1 0 0 0)" x="-286.42" y="2.064" width=".265" height=".529" ry="0"/><rect transform="matrix(-.00111 -1 1 0 0 0)" x="-286.42" y="9.472" width=".265" height=".529" ry="0"/></g><g transform="rotate(180 6.35 290.52)" fill="#2a7fff"><rect x="2.381" y="285.89" width="7.938" height=".529" ry=".265"/><rect transform="matrix(-.00111 -1 1 0 0 0)" x="-286.42" y="2.064" width=".265" height=".529" ry="0"/><rect transform="matrix(-.00111 -1 1 0 0 0)" x="-286.42" y="9.472" width=".265" height=".529" ry="0"/></g><g transform="translate(0 .265)" fill="#2a7fff"><rect transform="matrix(-.00007 1 1 .00002 0 0)" x="286.68" y="9.015" width="2.91" height=".529" ry=".264"/><rect transform="rotate(180) skewX(-.002)" x="-9.519" y="-287.21" width="3.015" height=".529" ry=".264"/><rect transform="matrix(.74313 -.66915 -.74307 -.66921 0 0)" x="-211.81" y="-221.42" width="3.075" height=".559" ry="0"/><rect transform="matrix(.74313 -.66915 -.74307 -.66921 0 0)" x="-211.79" y="-220.48" width="3.075" height=".559" ry="0"/></g><g transform="matrix(-1 0 0 1 12.7 .265)"><rect transform="matrix(-.00007 1 1 .00002 0 0)" x="286.68" y="9.015" width="2.91" height=".529" ry=".264" fill="#2a7fff"/><rect transform="rotate(180) skewX(-.002)" x="-9.519" y="-287.21" width="3.015" height=".529" ry=".264" fill="#2a7fff"/><rect transform="matrix(.74313 -.66915 -.74307 -.66921 0 0)" x="-211.81" y="-221.42" width="3.075" height=".559" ry="0" fill="url(#a)"/><rect transform="matrix(.74313 -.66915 -.74307 -.66921 0 0)" x="-211.79" y="-220.48" width="3.075" height=".559" ry="0" fill="#2a7fff"/></g><g transform="rotate(180 6.35 290.52)" fill="#2a7fff"><rect transform="matrix(-.00007 1 1 .00002 0 0)" x="286.68" y="9.015" width="2.91" height=".529" ry=".264"/><rect transform="rotate(180) skewX(-.002)" x="-9.519" y="-287.21" width="3.015" height=".529" ry=".264"/><rect transform="matrix(.74313 -.66915 -.74307 -.66921 0 0)" x="-211.81" y="-221.42" width="3.075" height=".559" ry="0"/><rect transform="matrix(.74313 -.66915 -.74307 -.66921 0 0)" x="-211.79" y="-220.48" width="3.075" height=".559" ry="0"/></g><g transform="matrix(1 0 0 -1 0 581.04)" fill="#2a7fff"><rect transform="matrix(-.00007 1 1 .00002 0 0)" x="286.68" y="9.015" width="2.91" height=".529" ry=".264"/><rect transform="rotate(180) skewX(-.002)" x="-9.519" y="-287.21" width="3.015" height=".529" ry=".264"/><rect transform="matrix(.74313 -.66915 -.74307 -.66921 0 0)" x="-211.81" y="-221.42" width="3.075" height=".559" ry="0"/><rect transform="matrix(.74313 -.66915 -.74307 -.66921 0 0)" x="-211.79" y="-220.48" width="3.075" height=".559" ry="0"/></g><g fill="#2a7fff"><rect x="6.085" y="289.33" width=".529" height="2.646" rx="0" ry="0"/><path d="M5.821 286.95h1.058v.529H5.821zm0 6.87h1.058v.529H5.821z"/><ellipse cx="4.366" cy="290.65" rx=".661" ry=".661"/><ellipse cx="8.334" cy="290.65" rx=".661" ry=".661"/><rect x="5.556" y="289.59" width="1.587" height="2.117" rx="0" ry="0"/><ellipse cx="1.191" cy="290.65" rx=".661" ry=".661"/><ellipse cx="11.509" cy="290.65" rx=".661" ry=".661"/><ellipse cx="6.35" cy="288.14" rx=".397" ry=".397"/><ellipse cx="6.35" cy="293.16" rx=".397" ry=".397"/></g></g></svg>